<?xml version="1.0" encoding="UTF-8"?>
<svg xmlns="http://www.w3.org/2000/svg" version="1.1" viewBox="0 0 1900 700">
  <defs>
    <style>
      .cls-1 {
        fill: #0d081e;
      }

      .cls-2 {
        fill: #fff;
      }

      .cls-3 {
        fill: #060015;
      }
    </style>
  </defs>
  <!-- Generator: Adobe Illustrator 28.6.0, SVG Export Plug-In . SVG Version: 1.2.0 Build 709)  -->
  <g>
    <g id="Layer_1">
      <path class="cls-1" d="M0,0h1900s-78.7,207.1-730.1,212.9c0,0-752.9-41.2-764.7,487.1H0V0Z"/>
      <path class="cls-3" d="M.2,700h399.9c-8.7-33.9-39.4-84.7-44.4-99.2-7.9-22.5-12.6-41.8-45.6-27.4-33.1,14.5-130.4,27.4-151.6,24.1-21.2-3.2-48,1.6-85.7,24.1-13.5,8.1-61.2,11.8-72.6,13.5.1,16.7,0,48.4,0,64.9Z"/>
      <g>
        <path class="cls-2" d="M288.8,446c-.2.5-.3.9-.5,1.4,0-.4.4-.9.5-1.4q0,0,0,0h0Z"/>
        <path class="cls-2" d="M309.2,384v-.8c-.1.3-.1.6,0,.8Z"/>
        <path class="cls-2" d="M312.1,322s-.1-4.5-.2-7.6-.4-4.3-.9-4.9c-.5-.7-.2-3.6-.5-4.3s-3.5-2.4-5.6-2c-2.2.3-3.4,3.2-3.7,3.9-.3.7-1,.4-2.9,1.9-2,1.4-8.9,8.8-8.9,8.8,0,0-10.5.6-17.5,4.6s-7.9,7.7-7.9,7.7c0,0-.7.5-3.1.9s-5.8,1.6-9.6,6.5c-3.9,4.9-6,7.9-6,7.9,0,0-.2-.2-5.5,1-5.4,1.2-12.1,5.5-12.1,5.5,0,0,.5,2,4,4.5,2.3,1.6,3.9,3.2,4.7,4.1-1.7.8-3.3,1.7-4.6,2.6-1.1.3-2.4.7-3.8,1.1-1.7.3-3.1.5-3.7.7-1,.2.9,0,3.6.4,0,0-.1,0-.1.1-1.6.3-3.5.7-5.7,1.4,1-.1,2.6-.5,4.7-.8-1.1.7-2,1.4-2.6,2-.9.4-1.7.9-2,1.1-.3.1.3.1,1.2.1-.2.3-.3.7-.4.9.5-.5,1-.8,1.5-1.2.6-.1,1.1-.1,1.6-.2-1.8,1.4-3.4,3-4.6,4.4-1.7,1.2-3.7,2.6-6.2,3.9,1.1-.4,3-1.3,5.2-2.8-.1.1-.2.3-.3.4-.9.6-1.9,1.2-2.9,1.9.6-.3,1.4-.8,2.5-1.3-1.3,1.5-2.3,2.9-2.8,3.7,1.4-1.6,2.6-3,3.7-4.2.2-.1.4-.2.6-.4-.1.1-.2.2-.3.3-.1,0-.2.1-.3.1h.2c-.5.6-1,1.2-1.5,1.8-.2.1-.4.2-.6.2.1,0,.3-.1.5-.1-.6.8-1.1,1.5-1.5,2-1.1.8-2.2,1.5-2.2,1.5,0,0,0,.2.1.3-.5.4-1.1.8-1.7,1.3.5-.3,1.1-.7,1.8-1.2h.2s.1,0,.1.1c-.7.7-1.4,1.5-1.9,2.2-.6.3-1.2.6-1.9.8.4-.1,1-.3,1.6-.5-.3.4-.6.9-.9,1.3-.5.3-1,.5-1.5.7.3-.1.8-.2,1.3-.5-.1.1-.2.3-.3.4-1.3,1.1-2.9,2.4-4.8,3.5.9-.3,2.4-1.1,4.2-2.5-.3.5-.6.9-.8,1.3-1.2.8-2.6,1.6-4.3,2.6.8-.3,2.2-1,3.9-1.9-.6.9-1,1.7-1.3,2.4-.4.6-.8,1.1-1,1.5.3-.4.7-.8,1-1.2h.4c-.7.8-1.3,1.6-1.8,2.5-1.3,1-2.7,2.2-4.5,3.5.8-.4,2.2-1.3,3.9-2.6-.4.7-.8,1.4-1.1,2-.4.3-.9.7-1.3,1.1.3-.2.7-.4,1.2-.7-.3.7-.5,1.2-.7,1.6-.6.3-1.2.5-1.9.7.6,0,1.4-.2,2.5-.7h0c-1.2.5-2.3,1-3.3,1.6-.9.2-1.8.4-2.8.6-.6-.1-1.1-.3-1.8-.4-.1,0-.2.1-.3.1-1.5.6-2.7,1.5-3.6,2.4-1.1.4-2.4.9-4,1.3.7-.1,1.9-.3,3.4-.8-.3.3-.5.6-.8.9-2.4.7-3.6,1.6-5.1,2.7-.1,0-.2.1-.3.1h.2c-2,1.4-4.4,3-10.7,4.4-11.4,2.5-14.1.5-23,3.5s-32.8,10.1-38.4,12.7c-.4.2-.8.4-1.3.6-6.7,3-12.5,8-16.1,14.5-.4.7-.8,1.4-1.1,2.1-2.1,4.1-3.7,8.6-4.7,13.6-1,.7-2.2,1.5-3.4,2.2.5-.2,1.2-.5,2-1l-.6.3c.5-.2,1.1-.6,1.9-1.1,0,.1,0,.2-.1.3-.6.4-1.3.8-2,1.3.5-.2,1.1-.6,2-1.1,0,.1-.1.3-.1.4h0l-.3.3c-.6.4-1.2.8-1.9,1.2.4-.1.8-.4,1.4-.7l-.3.3c-.6.4-1.3.9-2.1,1.5q-.1.1-.2.1c-1.2.7-2.6,1.5-4.3,2.5.4-.1.9-.4,1.5-.7l-.4.2c.2-.1.4-.1.6-.3-.9.6-1.8,1.3-2.9,2,.5-.3,1.2-.7,2-1.2l-.6.4c.2-.1.5-.3.8-.5.4-.1,1-.4,1.7-.7-.3.2-.7.4-1,.7-.3.2-.6.3-.9.5,0-.1.3-.1.4-.2-.4.3-.7.5-1.1.8.4-.2.9-.5,1.5-.9-.1.1-.2.1-.3.2-.4.3-.8.7-1.3,1.1-.4.4-.9.9-1.4,1.8.3-.6.8-1,1.3-1.5.5-.4,1.2-.9,2.1-1.5.1-.1.3-.1.4-.2-.1.1-.3.2-.4.3-.1,0-.1.1-.1.1h.1c-.7.5-1.4,1-2.1,1.5.4-.2.9-.5,1.6-.9-.5.4-1.1.9-1.6,1.4.6-.6,1.5-1.3,2.7-2.1-.2.2-.4.4-.5.6-.1.1-.2.1-.3.2.1,0,.2-.1.2-.1-.1.1-.2.3-.3.4l-.3.3c-.5.4-1,.9-1.5,1.6.3-.4.8-.8,1.4-1.2,0,.1,0,.1,0,.2,0-.1,0-.2.2-.3.3-.2.6-.5.9-.7-.5.7-.8,1.4-1,1.8-1.3,1.3-2.8,2.9-4.6,4.5.5-.4,1.2-.9,2-1.7l-.6.5c.7-.6,1.9-1.6,3.4-3.1h0l.6-.6h0c-.1.2-.2.4-.4.5-.8.7-1.7,1.5-2.8,2.5-1.1,1-2.3,2.1-3.6,3.5-.3.2-.7.5-1,.7.2-.1.5-.3.8-.4-.6.6-1.2,1.2-1.8,1.9-.4.3-.4.4,0,.2.2-.1.3-.2.5-.2-1,1.1-2.3,2.4-3.7,4,.3-.3.8-.8,1.4-1.4l-.4.4c.7-.6,2.1-1.9,3.7-3.5l-.2.3c-1,1-2.1,2.1-3.4,3.7.4-.4,1.1-1,2-1.8-.3.4-.6.9-.9,1.5-.3.4-.6.7-1,1.1.2-.2.5-.4.7-.7-.2.3-.3.6-.4.9-.2.4-.3.8-.5,1.2-.6.6-1.2,1.3-1.9,2.1.3-.3.7-.7,1.3-1.2l-.3.3c.2-.2.5-.4.8-.6,0,.2-.2.5-.2.6l-.4.4c0-.1.2-.1.3-.3-.3.3-.5.6-.8,1-1.2,1.4-2.6,3.1-4.2,5.3l1.5-1.7-.4.5c.3-.3.8-.9,1.4-1.5-1,1.5-2.6,3.4-4.9,5.9.3-.3.8-.7,1.3-1.2l-.3.4c.7-.6,1.9-1.7,3.3-3.3l-.2.3c-.8,1-1.8,2.1-3.1,3.5.6-.5,1.5-1.4,2.6-2.7l-.3.6c-1.6,1.5-2.6,2.4-2.1,2.1,0-.1.3-.1.5-.2-.2.3-.5.5-.7.8.3-.2.7-.6,1.1-1,.2-.1.4-.2.6-.3,0,.2-.2.4-.2.6-.5.4-1,.9-1.6,1.4.3-.2.7-.4,1.2-.8l-.3.3c.2-.1.4-.2.6-.4,0,.1,0,.3,0,.4,0-.1,0-.3.2-.4,0-.1.2-.1.2-.2-.2.2-.3.5-.5.7,0,.1-.2.2-.3.3,0-.1.2-.1.3-.2-1,1.6-2.3,3.5-3.8,5.5.4-.4.9-1.1,1.6-2l-.4.6c0-.1.2-.3.4-.4-.4.9-.8,1.9-1.3,3.2-.5.6-.9,1.2-1.5,1.9.3-.3.6-.6.9-1-.4.7-.9,1.4-1.3,2.4l1.1-1.6-.3.5c0-.1.2-.3.3-.4-.7,1.1-1.5,2.4-2.4,3.7h0c0,.3-.2.4-.3.6-1.6,2.4-3.5,5.1-5.7,8.6l2-2.8-.6.6c1-1.3,2.9-5.5,5.3-7.5h0l-.3.8c-1.4,2-3.1,4.6-5.1,7.5.8-1.1,2.3-3.1,4.2-5.7l-.7,1.4c-1.1,1.6-2.3,3.5-3.7,5.6.7-.8,1.7-2.2,2.9-4-.4.9-.8,1.7-1,2.5-.2.3-.4.5-.6.8,0,.1-.2.2-.3.4-2.3,2.9-3.6,4.9-3.9,5.5-2.4,3.1-5.6,6.8-10.1,12,.6-.6,1.5-1.5,2.6-2.8l-.7.8c.8-.8,2-2,3.5-3.8-.8,1-1.7,2.1-2.7,3.4-1.7,2-3.8,4.4-6.5,6.6.6-.4,1.4-1,2.4-1.9l-.7.6c1.2-.9,3.3-3,5.9-5.8l-.3.4c-.5.6-1,1.2-1.6,1.8-1.2,1.3-2.6,2.8-4.2,4.2,1-.7,2.7-2.2,4.8-4.5l-.3.5c-.7.7-1.5,1.5-2.3,2.2.5-.3,1.1-.9,1.9-1.6l-.5.5c0-.1.3-.2.4-.3h0c0,.2-.3.3-.4.4,0-.1.2-.1.3-.2-.8.9-1.7,1.9-2.7,2.9-1.2.6-2.5,1.2-3.9,1.7.5-.1,1.3-.4,2.3-.8l-.6.3c.4-.1.9-.3,1.5-.6-.2.2-.4.4-.6.6.3-.2.6-.4.9-.6.4-.2.9-.4,1.5-.6l-.2.3c-1,.5-2.1,1-3.3,1.5.7-.2,1.8-.6,3.1-1.2l-.2.2c0,.1-.3.3-.4.4-.9.5-1.9.9-3.1,1.4.6-.2,1.5-.5,2.6-.9-.6.6-1.3,1.3-2,2q0,.1-.2.2c-.7.5-1.5.9-2.4,1.4h0l-.4-.5s0,0,0,.1c-.9.3-1.8.5-2.7.6h-.4c-1.3.8-2.9,1.5-4.9,2.5-1.2.3-2.6.7-4,1,.6-.1,1.4-.2,2.5-.4l-.7.2c.2,0,.5-.1.7-.1-1.1.4-2.4.9-3.7,1.3-.3-.1-.6-.1-.9-.1.2,0,.5.1.8.2-.5.2-1,.3-1.6.5q-.2,0,0,0c-.7.2-1.4.4-2.1.6.6-.1,1.4-.3,2.3-.5h-.3c0,.1.2,0,.3,0h0c0,.1.3.1.5.2-.4.1-.9.3-1.3.4.4-.1.9-.2,1.4-.3.2.1.4.2.7.3-.9.3-1.8.6-2.9.8.7-.1,1.8-.4,3.2-.7,0,0,.2.1.2.1,0,0-.2,0-.3.1h.3c-1,.5-1.7,1-2.3,1.3l2.4-1.3c.2.1.4.1.6.2-.7.3-1.5.6-2.4.9.4-.1.9-.2,1.6-.4l-.4.2c.2,0,.4-.1.6-.1-1.1.8-2,1.4-2.6,1.9.8-.5,1.5-.9,2.1-1.4.2,0,.4-.1.7-.2,0,0,0,0,0,.1-.2.1-.4.3-.6.4h0c-.2.1-.4.2-.6.3,0-.1.3-.1.4-.1q0,.1-.2.1c0,0-.2.1-.3.1h.2c-.4.3-.8.6-1.1.9l.7-.5c-1.1.7-1.9,1.3-2.5,1.8,1.4-.9,2.7-1.7,3.9-2.5.2-.1.4-.1.6-.2h0,0v-1.3h.2c0,0,0,.8-.2.9-.2,0-.3.3-.5.3,0,0,.3.2.4.3-.5.1-.9.4-1.2.6.2-.1.3-.1.4-.1-.7.2-1.2.6-1.4.8.6-.3,1.3-.5,1.9-.7-.2.2-.3.4-.5.5.2-.2.4-.3.6-.5.2,0,.4-.1.6-.1q0,.1-.2.2h0c0,0,0,.1,0,.1-.2,0-.3.1-.5.1h.4c-.2.1-.3.3-.4.4-.7.2-1.1.4-.5.6,0,0,.2.1.3.1-.4.2-.7.3-.9.5.3-.1.7-.3,1-.4h0q0-.1,0-.1c0,.1.3.2.4.3-.3.4-.6.8-.7,1.1.3-.3.6-.7.8-1,0,.1,0-1.1.2-1v-1.1h0s0,1.2,0,1.2c0,.1,0,.8-.2.8s-.2.2-.3.2c0,0,.2.2.3.3,0,.1,0,.2,0,.3q0-.1.2-.1c.2.1.5.2.7.3-.2.2-.3.4-.4.5-.6-.1-1.1-.2-1.4-.2.5.1.9.2,1.3.3h0c.8.2,1.5.5,2.2.7h-.7c.4.1.8.1,1.1.2.2.1.3.1.4.2l.3.2c-2-.7-3.7-1.1-4.6-1.1h.5c-.7,0-1.3-.1-1.7,0,1.1.1,2.1.4,2.9.7.3.1.6.2.9.3-.5-.1-.9-.1-1.3-.1.7.1,1.3.3,1.9.4.3.1.6.3.9.4,1.4.7,2.4,1.3,3.3,1.9h.5c1,.2,2,.3,2.9.4.4.1.7.2,1.1.3.4.1.8.3,1.1.4h0,0c-.4.1-.7.2-.9.3.4-.1.8-.1,1.2-.1-.7.2-1.3.4-1.6.6.7-.2,1.4-.4,2.1-.4.2.1.3.1.4.2-1,.2-1.8.5-2.3.7h.4c-.3,0-.5.1-.7.2-.3.1-.4.1-.5.2,0,0,0,.1-.2.1q0,0,.2-.1h0c.4.1,1,.3,1.8.5h0,.2c1,.3,2.2.6,3.4.7h-.4,1.5c1.2,0,2.3,0,3.3-.1,0,0,0,.1,0,.2-2,.2-3.7.3-4.6.5h.6-2.2c2.4.3,4.3.2,6,.2-.6.4-1,.7-.7.7.3-.1,1-.2,1.9-.4h0,.3c.4-.2.8-.3,1.2-.4h.5v.2s0,.2,0,.2h0c-.8,0-1.5.4-2,.6l.5-.2c-.7.3-1.3.4-1.7.6,1.7-.4,3.1-.9,4.3-1.2-.3.1-.7.2-.9.3l.8-.2c-1.1.3-2,.5-2.7.7,1.6-.3,3-.6,4.3-.9l-.8,1.1s1.1-.4,4.3-1.4c1-.3,1.9-.6,2.8-.9-.2.2-.4.4-.5.5.3-.2.6-.4.8-.6.3-.1.6-.2.9-.3h0c-.7.4-1.2.8-1.5,1,.3-.2.6-.4.9-.5-.3.3-.5.5-.7.7l.3-.2c-.4.4-.8.7-1,1,1-.8,1.9-1.4,2.7-1.9h.2c-.9.5-1.5.9-1.9,1.3l.4-.3c-.7.4-1.1.8-1.4,1.1,1.7-1.1,3.3-1.8,4.7-2.4,0,.1-.2.2-.3.3-1,.5-1.9.9-2.4,1.1.7-.2,1.2-.4,1.8-.5-.3.2-.6.5-.8.6.5-.3,1.1-.6,1.6-.9.6-.3,1.1-.5,1.6-.7-.2.2-.4.3-.5.5-1.3.7-2.5,1.3-3.2,1.6h.5c-.7.2-1.4.3-1.8.5,1.3-.2,2.3-.5,3.3-.8.8-.3,1.5-.6,2.2-.9,0,.4-.2.8-.2,1,0-.3.6-.9,1.2-1.5.9-.4,1.6-.7,2.3-1l.3-.3c0-.1.2-.2.4-.4,0,.1-.2.3-.3.4l.4-.4c-.6.5-1,1-1.3,1.3,1.5-1.2,2.7-2.2,3.7-3.2,0,.2,0,.3,0,.4-.5.5-.9,1-1.2,1.3.5-.4.9-.8,1.3-1.2h0c0,.1.3,0,.6-.2-.6.7-1.1,1.2-1.4,1.6l.4-.4-1.4,1.4c1.1-.8,1.9-1.5,2.6-2.2l1.6-1.5c0,.3-.2.5-.3.7.2-.4.4-.7.7-1,0-.1.2-.1.3-.2,0,0,.2-.1.2-.1,0,.1,0,.2-.2.3,0,0,0,0,0-.1h0c0,.3-.2.5-.3.7-.5.6-.9,1.1-1.2,1.5.3-.3.6-.6.9-.9h0c0,.1,0,0,0,0h0c-.2.4-.4.8-.5,1.1.5-.8,1-1.4,1.4-2h.3c-.7.9-1.3,1.7-1.7,2.2l.3-.3c-.2.3-.4.5-.7.7-.3-.1-.5-.1-.8-.3.2.1.5.2.7.3-.2.2-.3.4-.5.5.2-.1.4-.3.6-.4.4.1.7.1,1,.1.5,0,.9-.2,1.2-.3.6-.3,1-.6,1.4-1,.3-.3.6-.6.9-.9-.2.3-.3.6-.5.9.3-.4.6-.9.9-1.3.2-.2.3-.3.4-.4,0-.1,0-.1,0-.1-.2.3-.3.6-.4.8.3-.4.5-.7.7-1.1,0,.1,0,.2,0,.3l.2-.4c-.3.6-.5,1.1-.6,1.5.4-.7.8-1.4,1.1-2,0-.1.2-.2.3-.3-.4.9-.8,1.6-1.1,2.1l.3-.4c-.3.6-.7,1.1-.9,1.4.8-.9,1.3-1.7,1.8-2.6,1-.6,4.2-2.9,6.5-6.5-.2.7-.4,1.3-.5,1.7.3-.8.6-1.5.8-2.2.2-.2.3-.4.5-.6v.2c-.2.8-.4,1.4-.6,1.9,0,.1-.1.1-.1.2h.1c0,.1-.1.3-.1.4l.2-.6c-.1.5-.3.9-.4,1.2-.2.2-.3.3-.5.4.2-.1.3-.2.5-.3-.1.3-.1.5-.2.8.1-.3.2-.6.3-.9.5-.4.9-.8,1.2-1.2.4-.6.7-1.1,1-1.6.2-.3.3-.6.5-.9l-.2.8c.4-.9.8-1.7,1-2.6h0c.1-.2.1-.3.1-.4.1.3.2.6.2.8-.1-.4-.1-.7-.1-1,.2-.4.3-.7.5-1.1.1.4.1.7.1.9v-1.1h.1c0-.2.1-.4.1-.5s.1-.1.1-.2c.1.7.2,1.2.2,1.6v-.4c.1.7.1,1.2.2,1.6v-1.6c0,.1.1.2.1.3,0-.2-.1-.5-.1-.7v-1.7c.1.1.1.2.1.3v.2q0-.1.1-.2c0,.1.1.1.1.1,0-.1-.1-.1-.1-.2s0-.1.1-.2c0,.1.1.1.1.2,0-.1-.1-.1-.1-.2.1-.2.1-.3.1-.5.1.2.2.3.3.4,0,.2-.1.4-.1.6v-.4c0,.6-.2,1.1-.3,1.5.2-.5.4-1,.5-1.4.1.2.2.3.3.4-.2.4-.4.8-.5,1.1.2-.3.4-.7.6-1h0c.3-.6.6-1.2.8-1.8h0v-.2c0,.6-.1,1.2-.1,1.6.1-.9.3-1.6.4-2.4.1-.3.2-.6.3-.8-.1,1.3-.1,2.5-.1,3.2v-.5c0,.7,0,1.3,0,1.7.3-1.1.4-2,.6-3,.6-1.6,1.1-3.1,1.6-4.2l.2-.3c-.6,2-1.1,3.8-1.3,4.7l.2-.5c-.2.7-.4,1.4-.6,1.8,1-2.4,1.6-4.1,2.3-5.6.4-1,.9-1.9,1.2-2.7.5,1,.6,1.1.5.8-.1-.2-.2-.6-.2-1.3s.1-.1.1-.2q0,.1.1.2v-.3h0c.1.7.3,1.2.4,1.6-.1-.9-.2-1.8-.3-2.6.1-1.1.2-2.1.4-3.3q0,.1.1.2v-.3c0-.1,0-.2.1-.3,0,.1,0,.2-.1.3,0-.3-.1-.5-.1-.7v-.3c.1.3.1.5.2.8.1,1.6.1,3,0,4,.2-.9.2-1.7.2-2.5,0,.1.1.2.1.3,0-.3-.1-.5-.1-.7v-1.3c.1.2.1.4.1.6v-.5c.2.4.5.8.5,1.2h0c0,1.1-.1,2-.1,2.7v-.7c-.1,1-.2,1.9-.8,3,.5-.6.6-1.1.7-1.6.1-.4.1-.8.2-1.2,0-.3.1-.6.1-1,.1.3.1.5.2.7-.1-.4-.1-.9-.1-1.3v-.4c.1-1.2.1-2.4.2-3.2,0-.2.1-.4.1-.6,0,.2.1.4.1.6v-.9c.1-.3.1-.5.2-.8.2.7.3,1.2.4,1.6.1.5.1.9.2,1.3v-.9c.3.3.2-2.8.6-5.9.1-.1.1-.2.2-.2.1.6.2,1,.4,1.4-.1-.4-.1-.8-.2-1.2.1-.1.1-.2.2-.3v1.1-.4c.1.2.2.4.2.6v-1h0c0,.1.1.2.1.4.1.3.1.5.2.7v-.4c0,.7.2,1.2.3,1.6,0-.2-.1-.4-.1-.5v-.2c0,.3.1.5.1.7v-1.2h0c0,.2.1.4.1.6v-.2h0v-.9c0-.2.1-.4.1-.5.1-.1.1-.2.2-.3.1.7.2,1.3.3,1.8v-.3h0c.1.7.1,1.1.2,1.5h0c0-.1,0,0,0,0,0-1.3,0-2.6.1-3.6,0,.1.1.2.1.3v.3-.2c0,.1.1.3.1.4v-.3c.1.5.2.9.3,1.1-.1-1-.1-1.9-.1-2.8h.1c.1.5.3,1.1.5,1.5,0,.3.1.6.1.9v-.6c.1.3.2.5.3.7-.1-.4-.2-.8-.3-1.2v-1h0c.1.5.4,1,.6,1.4,0,.2.2.4.2.5v-.4h-.1c0,.8,0,1.4.1,1.9v-1.6c0,.1.1.1.1.2v-.2h-.1c0,.5.4.8.5,1.1-.2-.7-.4-1.4-.5-1.9v-.4c.1.2.1.3.2.4-.1-.4.4-1.9.9-4,.5,1.4.9,3,1.3,4.6,2.1,11.3,4.1,25.9-1,35.5.1,3-3.5,6.2-5,9.6-1.5,3.3-.1,9.1,1.2,14.6s5.3,30.1,5.6,31,1.6,3.5,3.6,4.5c2.1,1,3.3.8,4.5.2,1.1-.6,1.8.1,3.4-.1,1.5-.2,1.6-.3,1.6-.3l.4,1s.7-.9.8-1.3c.1-.5.6,0,2.1-.3,1.4-.3,3.2-2.5,3.2-2.5,0,0,.7.2,1.4.8.7.6.2-.5-.4-2-.6-1.5-.3-1.8-.3-1.8,0,0-.5-1.3-2.3-2.4s-2.9-1.4-4.4-1.8-1.5-.2-3.3-4.1-3.7-23.3-3.7-23.3c0,0,.8,3.5,2.4,6.8s10.9,17.3,11.1,18.3c.2,1,1.6,2.6,3,3.7s2.8-.3,4-.4,1.9.4,5.4.4,4.8-.6,5.7-1.1,2,.3,2,.3v-1.2c.1,0,2.5-.2,3.4-.5.9-.4,1.3-1.1,1.8-1.8s2.7.5,2.7.5v-.8c-.1-.8-1.1-1.8-1.1-1.8,0,0-.5-1.1-1.1-1.5-.7-.4-2.3-2.4-5.8-2.6-3.4-.2-11.2.2-11.2.2,0,0-7-12.4-8-17.4-.7-3.6.8-12,1.5-16.8,0,0,.3-1.8.8-4.2,0,0-.1,0-.1-.1,0,0,0-.1.1-.1h0c.3-1,.5-2.4.8-3.6.9-3.7,2.8-7.6,7.1-9.4,4.3-1.9,7-5.2,7-5.2,4.2-6.7,8.5-14.4,9.8-17.3,1.6-3.7,3.3-7.6,4.1-9.5.3-.2.5-.4.8-.7h0c0,.1-.1.8-.1.8l-.3.3.3-.3c-.4.4-.8.8-1,1.1.5-.4.9-.8,1.4-1.2v.2h.6v.2c0-.1.1-.2.1-.2h.2-.1c0,.1.1,0,.1,0h.1v.2h0v.3-.3.8h-.1c0,.1.1.1.1,0v.2c0-.1,0-.2.1-.2.4-.2.8-.4,1.2-.6-.2.4-.3.7-.4,1,.2-.4.4-.8.7-1.1.7-.3,1.3-.6,1.9-.9-.5.3-.9.6-1.1.8,1.1-.6,2-1.1,2.9-1.4.3-.1.7-.2,1-.3-1.6.8-2.8,1.6-3.4,2.1l.4-.2c-.6.4-1.1.7-1.4,1,1.9-1.1,3.5-1.7,4.8-2.2-.2.2-.3.3-.4.5.3-.2.5-.4.8-.6h.1c.3-.1.5-.1.7-.2l-1,1c-.7.1-1.3.1-1.7.2h1.4l-.4.4c-.3,0-.4.1-.6.1h.8s-1.9.1-2.5,0c.8.1,1.5.2,2.1.2,0,0-.1,0-.1.1,0,0,.1,0,.1-.1.9,0,1.7,0,2.4-.1.8-.1,1.6-.1,2.3-.2h-.1c.1.1.1,0,.1,0,.4,0,.7-.1,1-.1-.3.2-.5.4-.6.6l.5-.3c-.7.5-1.2.9-1.5,1.3.8-.6,1.7-1.2,2.5-1.6,1.4-.1,2.5-.2,3.5-.3-.2-.1-.3-.2-.4-.1.3-.1.5-.9.8-.9h.1v.4c.7-.3,1.3-.4,1.8-.6.2-.1.4-.3.6-.4h.4c-.2.1-.3.1-.4.2.5-.1,1-.3,1.4-.5h.4c-2.2,1-3.9,2-4.8,2.7l.5-.2c-.8.4-1.4.8-1.8,1,2.7-1.3,5-2,6.7-2.6q.1,0,.2-.1c-1.1.5-2,1-2.6,1.4l.6-.2c-.8.4-1.5.8-2,1,2.2-.9,4.1-1.6,5.8-2.2l-.6.6c-.4.3-.4.5-.1.6l-.6.2c.3,0,.5-.1.8-.1.5.1,1.5.2,3.1.4h1.1c-.3.2-.6.3-.8.5.4-.2.7-.3,1.1-.5.4,0,.8-.1,1.2-.2-.8.4-1.4.8-1.9,1.1l.5-.2c-.8.4-1.4.8-1.8,1,2.9-1.3,5.1-2.2,6.9-2.8h1.8c-.1,0-.3.1-.4.1.2,0,.5-.1.8-.1-.4.7-1.6,1.6-1.1,1.5.1,0,.3-.1.6-.2-.4.4-.7.7-.9,1,.5-.4,1-.9,1.4-1.2.3-.1.6-.2.9-.4-.8.8-1.5,1.5-1.8,1.9l.4-.3c-.5.5-.9.9-1.2,1.3,1-.9,1.9-1.6,2.8-2.2-.2.3-.4.6-.4.8.3-.4.6-.8.9-1.1.3-.2.6-.4.9-.6-.6.8-1.1,1.5-1.3,2l.3-.4c-.4.5-.6,1-.7,1.4,1.1-1.6,2.2-2.8,3.3-3.6,0,.3-.1.6-.2,1.1l-.2.2c.1,0,.1-.1.2-.1,0,.1-.1.3-.1.4-.3.9,1.8-.5,3.5-1.8.2,0,.4,0,.6-.1-.8.6-1.5,1.1-1.9,1.5l.5-.3c-.7.5-1.2,1-1.6,1.3.9-.6,1.7-1.2,2.5-1.7-.5.6-.8,1.2-1,1.6.6-.7,1.1-1.4,1.7-1.9.3-.1.5-.3.7-.4-.4.5-.8.9-1.1,1.4h-.1.1c-.3.5-.6.9-.8,1.2l.3-.4c-.4.6-.7,1.1-.9,1.5.6-.7,1.1-1.4,1.6-2,.1-.1.3-.2.4-.3h.2s0,.1-.1.1c-.1.3-.2.4-.2.6-.1.2-.3.3-.4.5l.4-.3c-.5.5-.9,1-1.2,1.3.6-.5,1.1-1,1.6-1.4.4-.2,1-.7,1.7-1,.5-.1,1-.2,1.6-.4-1.5,1.3-2.9,2.5-3.6,3.1,1.9-1.2,3.4-2.5,4.7-3.5l.4-.2c-1.9,1.7-3.6,3.2-4.5,4l.6-.4-1.9,1.4c3.1-1.8,5.1-3.5,6.8-4.7.4-.3.7-.5,1-.7h-.1c0,.1.2-.1.2-.1h0c-.3.5-.6.9-.8,1.2.5-.6,1-1.1,1.5-1.6.1,0,.1-.1.2-.1,0,.2-.1.5-.1.7v-.2c0,.4,0,.7-.1.9.3-.7.4-1.2.6-1.6.2-.1.5-.3.7-.4-.1.2-.1.4-.1.5v-.3c-.1.5-.3.9-.4,1.3.4-.6.7-1.2,1-1.7.2-.1.4-.2.5-.3h.2c.1-.2.2-.3.3-.4.2-.1.4-.2.5-.2-.4.9-.6,1.6-.8,2.1.4-.8.7-1.4,1-2.1q.1.1.2.2c-.3.8-.6,1.5-.7,2l.2-.4c-.3.6-.5,1.2-.6,1.6.6-1.1,1.1-2,1.5-2.9h0c.2.2.4.5.6.7-.2.3-.3.5-.4.7.2-.2.3-.4.5-.6.1.1.1.2.1.3v.2c-.1.1.3.2.3.3-1.2.5-.5.7-.7,1,.3-.3.4-.6.7-.9.2,3.5-.1,21.5,1.4,24.8,1.6,3.6,2.5,26.1,2.7,28.6s-.5,9.3,1.4,15.1c1.9,5.8,3.9,13.3,4,13.9s-1.7,5.8-1.3,10.1c.4,4.2,1.1.8,1.8.9s2.5,3.4,3.8,4.7c1.3,1.4,2.5,1,4.9.8s3-.7,3-.7l.3.6s1.2-.5,1.9-1.4c.6-1,1.2-.5,2.9-1,1.7-.5,1.7-1.5,1.7-1.5,0,0,.4.1.8.3s.1-2.1.1-2.1c0,0,.2-.4.3-1.3.1-.9-.5-2.4-1.2-3.7-.8-1.3-3.9-3-5.3-4.7-1.4-1.8-2.1-10.9-3.4-13.3s-1-5.7-.3-8c.7-2.4.4-19-.2-31.1-.5-9.4,2.6-26.1,4-32.8.2-.3.3-.5.5-.8.2.8.5,1.5.9,2.2-.1.1-.2.3-.3.4h0c-.1.2-.3.3-.5.4.1.3.5.5.5.8v1.9c.1-.3.3-.8.5-1.4.2.5.5,1,.8,1.5,0,.9-.1,1.9-.4,3.2.3-.5.6-1.4.7-2.7.4.5.7,1,1,1.4.2.9.4,1.8.4,2.8s.1,1.3.2,2.4c-.2.7-.4,1.5-.7,2.5.2-.4.5-.9.7-1.7.5,8.4,1.2,27.6,1,30.7-.3,3.6-1.2,14.2-1.2,16.5s2.9,4,2.9,4l3.7,14.2s1.2,2.2,2.5,3.7.5,5.3,1,6.9c.6,1.6,2.3,2.5,3.9,2.5s3.1-.4,3.5-.3c.5,0,2.4.3,5,0s3.7-1.4,3.7-1.4c0,0,3.5.3,4.9-.2s1.8-1.8,1.8-1.8l1.2.5s.5-1.3.1-2c-.3-.7,0-1.2-.8-2.8s-2.5-2-4.4-2.4-7.3-1.4-8.2-1.8c-.9-.4-1.6-.7-3-3.6s-3-11.1-3.4-12.6-.2-1.9,1.3-7.1,2.8-21.8,3.5-33.1c.7-11.4,3.6-34.6,3.6-34.6,0,0,2.3-3.5,4.1-9.1,1.8-5.6,2.6-5.1,2.6-5.1,0,0,.6,1.2.7,2.8,0,1.4,0,.3,1-2.7-.1.6-.2,1.2-.2,1.6.1-.3.1-.5.2-.8-.2,1.2-.5,2.2-.7,3,.8-1.9,1.1-3.7,1.4-5.2.4-1.3.6-2.6.8-3.7.1.2.1.5.2.7.1,1.2.4-.2.7-3.2.1,1.8.1,3.4.1,4.3.3-2.7.1-4.8.1-6.6v-.5c.1.4.2.9.2,1.3v.8c0-.1,0-.3.1-.4.2,2.2.2,4.1.3,5.1v-.8c0,1.1-.1,2-.1,2.8.4-2,.4-3.9.5-5.4v-1c.2-1.1.3-2,.4-3,.2-.5.5-1,.7-1.6v1.9c.1-.9.4-1.7.4-2.6s.1-.2.2-.3c.1,1,0,1.8,0,2.5v-.3.5c0,.7-.1,1.4-.1,1.8,0-.2,0-.4.1-.5,0,.4,0,.7-.1.9.2-1.1.3-2.1.3-3.1s.1-.9.1-1.3v.8c0-.3.1-.6.1-.9,0,.1.1.1.1.1v.8c.1,1.3,0,2.5,0,3.2,0-.3.1-.6.1-.9-.1,1.3-.3,2.4-.5,3.2.7-2.1.9-4,.9-5.7.4.4.3.2,0-.3h0v-.6c.4-1.7.7-3.4.8-4.7,0-.4.1-.8.1-1.2.1-.5.2-1.5.2-2.5s-.6-.3-.6-.5c.1.1-.4.3-.4.4h.7c.1.1.5.2.5.2,0,.1.1.2.1.2v-.2h.2c-.2.9-.3,1.6-.5,2.2.3-.7.5-1.4.6-2,0,0,0,.1.1.1,0,0,0-.1-.1-.1,0-.2.1-.4.1-.6,0,.1.1.1.1.2-.1.6-.1,1.1-.2,1.5.1-.5.3-1.1.4-1.6,0,0,0,.1.1.1h-.1c.3.4.6.7.8,1-.3-.5-.5-.9-.8-1.4,0-.1,0-.3.1-.4.1.2.4.3.5.4v-.2c-.1-.3-.2-.5-.3-.8.1-.7.1-1.4.2-2,.1-.7.1-1.3.1-2,.1-.7.2-1.3.3-1.9.1.2.1.3.2.4v-.6c.1.9.4,1.6.6,2.1-.3-1-.4-1.9-.6-2.9,0-.2.1-.4.1-.6,0,.1.1.2.1.4,0-.2-.1-.3-.1-.5h0c.1.3.2.7.3,1v-.6c.1.9.3,1.7.5,2.2-.3-1.2-.4-2.4-.5-3.4.1.3.2.5.3.7l-.2-.7c.3,1,.6,1.8.9,2.4-.4-1.3-.7-2.5-.9-3.7.1-.4.2-.8.2-1.1.1.3.2.6.2.9v-.7c.1,1,.3,1.9.5,2.5-.2-1.3-.4-2.5-.5-3.6h0c0-.1-.9-.4-.9-.4-.3-1.4-1.3-3-1.3-4.4h0c2.9-.7,1.3-1.3,1.5-1.8h.5c-.1,1.1.2,2.2.2,3.2s.1.3,0,.4c0-.1.1-.2.2-.3,0,.6.1,1.1.2,1.5v-2c.1-.4.3-.8.4-1.2,0,.6,0,1.2.1,1.6h.4v-.3c.2-.4.5-.8.7-1.2v.3-.4h0s.1.1.1.2c-.1.4-.1.7-.2,1,.1-.3.2-.6.2-.8,0,.1.1.3.2.4v.5c0-.1,0-.2.1-.4.1.4.3.7.4.9.3.7-.2-.3.2-3.8h0c-.1,2.2-.1,4.2-.1,5.3.3-2.6.3-4.7.5-6.6v-.4c.1.2.1.4.1.6v6-.7,2.7c.3-1.9.5-3.7.6-5.2,0-.5.1-.9.1-1.4,0,.9.1,1.6.1,2.2v-.6,2.4c.1-1.9.3-3.6.4-5,.1.6.3,1,.4,1.4-.1-.8-.3-1.4-.4-2.1.1-.8.1-1.5.3-2.2,0-.2.1-.4.1-.6-.1.9-.1,1.6-.1,2.1v-.6,2c.2-1.5.4-2.9.7-4.1.2.4.4.8.6,1-.2-.5-.4-.9-.5-1.3,0-.2.1-.4.1-.6.3.7.6,1.2.9,1.6l-.2-.4c.3.6.6,1.2.9,1.5-.6-1.4-1-2.6-1.3-3.6.1-.4.2-.7.3-1q.1.1.2.2c0,.1,0,.3.1.4v-.4h0c.1.8.2,1.5.3,2,0-.6-.1-1.2-.1-1.8.1.1.2.2.3.3.1.1.2.2.3.2,0,.2,0,.4-.1.5,0-.1,0-.2.1-.3v.4c0-.3.1-.5.1-.8h.6c0-3.9,1.6-7.1,2.4-9.6.2-.7.3-1.2.5-1.8v.6-.8c0-.1.1-.2.1-.3v2.6c.1-1.1.1-2.2.2-3.3h0c0,.5.1,1.1.1,1.5v-.6c0,.9.1,1.7.2,2.2v-.6.4-.7,2.5c.1-1.5.3-3,.4-4.2h0v-.5c.1-.2.2-.5.3-1,.1.6.2,1.1.3,1.4v-.5c.1.7.1,1.3.2,1.7v-5c0-.2.1-.4.1-.6.1-.2.2-.4.3-.6-.1.6-.1,1.2-.1,1.6v-.7c-.1,1.1-.2,2-.2,2.7.2-.9.4-1.7.5-2.6.1.5.2,1,.4,1.3-.1-.7-.2-1.3-.2-1.8s.1-.4.1-.7c.1.1.1.3.2.4.1.8.3,1.5.5,1.9v-.5c0,.7.2,1.3.4,1.7-.3-1.3-.4-2.5-.4-3.5.1.1.1.3.2.4v-.4c.1.6.4,1.1.6,1.5-.2-.8-.4-1.5-.6-2.1.3.5.6,1,.6,1.3s.1.2.2-.4c.2.4.3.8.5,1.1-.1-.5-.3-1-.4-1.5.1-.7.3-1.8.5-3.3v-.2.5c0-1.5.1-3,.1-4.3.1-.3.1-.6.2-.9.1,1.3.2,2.5.3,3.2v-.6c0,.9.1,1.6.2,2.1v-2.5,1.8c.1-1.9.1-3.8,0-5.4v-1.7c.1.1.1.2.2.2l.5,6.1v-1.2,4.2c.2-3,.2-5.6.1-8.1.1.2.1.3.1.4-.1.7.2-.4.2-2.5.1-.5.2-1,.3-1.6l.8,4.8c0-.7-.1-1.3-.1-2,.2-.6.4-1.2.5-1.7.2,1.1.4,2,.5,2.7-.1-1.2-.2-2.2-.4-3.4.1-.5.1-.9.1-1.4.3,1.7.6,3.2.8,4.1v-1c.1,1.4.2,2.7.3,3.5-.1-3.9-.6-6.9-1-9.6.3.1.5.3.7.4.9.4.2.1-.9-1.8l-.2-1.2c.1.2.3.3.4.5l-.2-.3c.3.5.6.8.9,1.1-.5-.8-.9-1.5-1.2-2.2v-1.8h0c.1,0,.1.1.2.1.1.3.2.5.3.7.2,1,.5,1.8.6,2.5-.2-.9-.3-1.8-.5-2.8,0,.1.1.1.2.2-.1-.1-.1-.2-.2-.3-.1-.3-.1-.7-.2-1,.1.2.3.3.4.5.1.3.2.6.4.8.2.7.3,1.3.5,1.7l-.2-1c.3,1.4.6,2.7.8,3.5-.1-1-.3-1.9-.5-2.9h0c-.1-.5-.1-1-.2-1.4.2.2.3.4.4.5-.2-.3-.3-.6-.5-.8-.1-.7-.3-1.4-.4-2.1.3.4.5.7.7.9-.3-.5-.5-1-.8-1.4,0-.3-.1-.6-.1-.9.5.8,1,1.5,1.4,1.9l-.2-.4c.4.6.7,1.1,1,1.4-1.2-2.2-2-3.9-2.5-5.2h0v-1.1c.1.1-.5.1-.4.2l-.8-.2h0c0,.2.9.3,1,.4.3,1,.8,1.8.9,2.5-.1-.8-.1-1.5-.3-2.2.1.1.2.1.3.2-.1-.1-.1-.2-.2-.3-.1-.5-.2-1.1-.3-1.6.2.2.3.3.5.4.1,1.1.2,1.9.2,2.7v-1.9c.2.8.4,1.6.6,2.1l-.2-.9c.1.3.1.6.2.9,0,.7-.1,1.3-.1,1.8.1-.5.2-1,.2-1.5.2.7.3,1.3.4,1.8-.1-.8-.3-1.6-.4-2.4.2-2-.9-3.9-1.1-5.5-.3-1.7-1.8-3.3-1.8-4.7h0c2.9,1,2.1,2,2.1,2.9.4,1.3,1.1,2.5,1.4,3.2-.8-3.2-1.4-5.8-1.9-8.3v-3.3c.1-.1.2-.2.2-.4.1.2.3.3.4.5-.1-.2-.2-.4-.3-.6.1-.2.2-.4.2-.6.1.2.3.4.4.5,0,.2.1.4.1.6-.1.5-.4,1-.6,1.5.2-.2.5-.6.7-1.1.1,1.1.2,2,.3,2.7,0-1.1,0-2.1-.1-3.2h0c.2.1.3.4.5.6.1.8.2,1.4.2,2v-.9c.1,1.3,0,2.5,0,3.3.4-2.5.2-4.5,0-6.3,0-.3-.1-.5-.1-.8,0,.1.1.1.1.2.2,1,.4,1.8.5,2.5,0-.6-.1-1.2-.1-1.7.1.4.2.8.3,1.1.2.9.2,1.7.2,2.4.1-1,0-2-.1-2.9l.2.8c0-.4-.1-.8-.1-1.2,0,0,0,.1.1.1q0-.1-.1-.2c0-.3-.1-.6-.1-.9.2.8.3,1.4.4,1.9,0-.3,0-.5-.1-.8.2,1.2.2,2.1.2,2.9.1-.7.1-1.4,0-2,.1.6.2,1.2.2,1.7,0,.9-.1,1.7-.3,2.4.4-1.2.5-2.4.5-3.4s-.2-1.9-.3-2.8c-.3-1.1-.6-2.1-.9-3.1.1.2.2.4.3.6-.2-.4-.3-.8-.5-1.2-.2-.6-.3-1.1-.5-1.7,0-.1,0-.3-.1-.4.6,1.2,1.1,2.1,1.5,2.8l-.3-.7c.5,1,.9,1.8,1.1,2.5-.6-1.7-1.3-3.3-1.8-4.6.2.2.4.4.5.6,1,1-1.9-7.1-2.8-11.4s1.2-9.1,2.2-12.2c.9-3.1,3.2-5.2,3.8-10.3.3-4.7-2.2-10.9-2.2-10.9ZM24.8,546.4c-.3,0-.6-.1-.8-.1.5-.1,1-.2,1.7-.4,0,0,.2,0,.2.1-.4.1-.8.2-1.3.3.3,0,.8-.1,1.4-.2-.3,0-.8.2-1.2.3ZM27.1,552.9c.2-.2.4-.3.5-.5.3.1.5.2.7.4.3.2.5.4.8.6-.7-.2-1.4-.4-2-.5ZM28.2,545.3c-.6.2-1.3.4-2,.6,0,0-.2,0-.3-.1,1-.3,2.2-.6,3.5-1.1.3,0,.5-.1.8-.2-.7.3-1.3.6-2,.8ZM45.4,534.6c-.3.2-.6.3-1,.5.5-.4,1-.9,1.6-1.5l-.6,1ZM61.7,510.8q0,.1,0,0c-.5.7-.9,1.4-1.4,2.1.5-1,.9-2,1.4-3l.8-1.1c-.2.6-.5,1.1-.7,1.7-.3.3-.5.7-.8,1,.2-.2.4-.4.7-.8ZM63.5,507.4c0-.1,0-.2.2-.3-.3.6-.5,1.2-.7,1.7-.2.3-.4.5-.5.8.3-.8.6-1.5,1-2.2l.3-.5c-.1.2-.2.4-.3.5ZM74.1,558.5c.2-.1.4-.2.6-.3-.4.2-.9.4-1.4.5h-.8c.6-.5,1.1-1,1.5-1.4l.7-.7c.4-.2.8-.5,1.2-.8v.5c-.7.8-1.4,1.5-2.3,1.7.7-.1,1.1-.4,1.4-.6.3-.3.6-.5.9-.8h0v.3s0-.1,0-.4c.4-.4.7-.7,1-1.1,0,.2-.2.4-.3.5l.5-.8h0c0-.1,0,0,0,0h0c0-.1,0-.2,0-.2-1.1,1.7-2.1,3.1-3.3,3.7ZM87.6,547.9c-.4.8-.7,1.5-1,2-.2.3-.4.6-.7.9.2-.6.5-1.2.7-1.8.4-.5.6-1.1.9-1.6.3-.7.6-1.3.8-1.9-.1.4-.2.8-.3,1.1.2-.6.4-1.1.6-1.6h0c-.3,1.1-.6,2-1,3ZM92.5,541.6c-.1.3-.3.6-.4.9-.1-.2-.2-.4-.3-.5.1-.4.3-.8.4-1.1.1-.2.2-.5.3-.7-.1.6-.2,1-.3,1.3.2-.5.3-.9.5-1.4l.2.2c-.2.8-.4,1.4-.6,1.9l.2-.6ZM86.4,466.9c-.3.3-.6.6-.9.9.4-.8.9-1.5,1.4-2.1l.4-.3c-.4.5-.7,1-.9,1.5ZM94.1,540.2c.1-.6.2-1.2.4-1.8.1-.4.2-.7.3-1l.3-.3c-.5,1.2-.8,2.4-1,3.2ZM163.9,512.6c-.2.2-.4.3-.6.4l.4-.2c-.5.3-.9.6-1.2.8.1-.4.2-.7.4-1h.4s0,.1-.1.1c0-.1.1-.1.1-.1h.3c-.1-.1-.2-.1-.3-.1.1-.1.1-.2.2-.3.3-.1.5-.3.7-.4,0,.4-.2.6-.3.8ZM172,511.2c.2.1.3.1.5.2-.1.1-.2.1-.3.2.1-.1.2-.1.3-.2.2.1.4.1.6.2-.1.1-.2.1-.3.2-.3,0-.7-.1-1.1-.2.2-.1.2-.2.3-.4ZM170.7,511.7c.3.1.6.2.9.3h0c-.6.2-1.3.3-1.8.4.3-.3.6-.5.9-.7ZM168.7,513.1c.3-.2.5-.3.7-.5.8,0,1.5-.1,2.1-.2v.3c-1.1.2-2,.3-2.8.4ZM195,512.1c.7-.2,1.4-.4,1.9-.5.2,0,.2.1.2.2-.5.1-1.3.2-2.1.3ZM206,397.8c-.3.1-.5.3-.8.4.4-.7.7-1.3,1.1-1.9.2-.2.4-.3.6-.5-.4.8-.7,1.5-.9,2ZM207.6,396.5c-.2.2-.3.4-.5.6-.2.1-.4.2-.6.4.4-.6.7-1.1,1-1.6l.4-.2c0,.3-.2.6-.3.8ZM207.3,395.2c-.2.2-.5.4-.7.6.5-.8,1-1.6,1.5-2.2l.4-.3c-.5.7-.9,1.3-1.2,1.9ZM210.1,390.3c-.4.3-.6.4-.8.4.5-.6,1-1.2,1.5-1.8-.3.5-.5,1-.7,1.4ZM225.9,367.1c-.4.1-.8.3-1.2.5.5-.4,1.1-.8,1.6-1.1.3-.1.6-.2.9-.3-.4.3-.9.6-1.3.9ZM281.6,469.8c-.1.6-.3,1.3-.6,1.9l.3-3.2c0,.1.1.2.2.3.1.2.1.6.1.9ZM283.7,467.6l-.3,2.4c0-1.3-.1-2.5-.1-3.5.1-.9.2-1.7.2-2.6.1.1.1.2.2.3,0,1.7-.1,3.3-.1,4.2v-.8ZM288.7,443c-.1.6-.3,1.1-.4,1.5,0-1.1.1-2.1.3-3.2.1-.1.2-.2.2-.3-.1.6-.1,1.3-.1,1.9ZM295.4,432.8c0,.6,0,1.1-.1,1.5-.1-.4-.3-.9-.4-1.3.1-.5.2-.9.3-1.4v1.9l.2-.7ZM295,432.9c0-.2-.1-.3-.1-.4v-.6c.1-.3.3-.6.4-.9,0,.8-.2,1.4-.3,1.9ZM295.7,432.4c.1-.9.2-1.8.3-2.7.1-.2.2-.4.3-.7-.2,1.3-.5,2.5-.6,3.4ZM306.8,401.2c.1.7.3,1.4.4,2.1v.9c-.1-.4-.3-.8-.4-1.3,0-.7,0-1.2,0-1.7ZM308.5,383.9c.2.7.3,1.3.4,1.9.3,1.4.4,2.6.5,3.5-.4-2.1-.7-3.9-1-5.5q0,.1.1.1ZM309.5,372.9v.4c0,.3-.1.6-.1.8-.1-.6-.1-1.2-.3-1.8.1.2.2.4.4.6-.1-.1,0,0,0,0Z"/>
        <path class="cls-2" d="M223.8,368.3h0q0,0,0,0t0,0Z"/>
        <path class="cls-2" d="M85.4,464.7c.8-.4,1.8-1.1,3-1.7-.2.2-.4.3-.6.5-.8.3-1.5.7-2.4,1.2Z"/>
        <path class="cls-2" d="M160.5,512.2c.3-.7.5-1.1.5-1.1h0v.3c-.2.3-.4.6-.5.8Z"/>
        <path class="cls-2" d="M161.3,511.2q0,.1,0,0h-.1c0-.1.1-.2.1-.2v.2Z"/>
        <path class="cls-2" d="M163.9,511.2c.2-.2.4-.3.6-.4-.1.1-.2.3-.3.4-.3.2-.5.4-.7.6,0-.3.2-.4.4-.6Z"/>
        <path class="cls-2" d="M163.4,511.8l.4-.2c-.2.1-.3.2-.4.2s0,0,0,0Z"/>
        <path class="cls-2" d="M163.2,512.5q-.1,0,0,0l.4-.4s0,.1-.1.1l-.3.3Z"/>
        <path class="cls-2" d="M163.4,512.4c0,.1-.1.1-.1.1h-.1c.1,0,.2-.1.2-.1Z"/>
        <path class="cls-2" d="M163.2,512.1h0c.1,0,.1-.1.1-.1-.1.1-.2.2-.4.3,0-.1.1-.1.1-.2h.2Z"/>
        <path class="cls-2" d="M161.9,512.2c.2-.2.3-.3.4-.5h0c-.1.2-.1.4-.1.6,0,0-.2,0-.3-.1Z"/>
        <path class="cls-2" d="M162.3,512.3c.1-.3.2-.6.3-.8.1-.1.2-.1.4-.2h0c0,.1-.1.1-.1.2h.1c-.1.4-.2.7-.3,1-.2-.1-.3-.2-.4-.2Z"/>
        <path class="cls-2" d="M164.6,511.5c-.3.2-.6.4-.8.6h.1c.2-.3.5-.5.7-.6h0Z"/>
        <path class="cls-2" d="M164.7,512.1c.2-.3.5-.5.7-.7.3-.2.7-.3,1-.4h.3c-.7.3-1.4.7-2,1.1Z"/>
        <path class="cls-2" d="M171.9,512h-.2.2Z"/>
        <path class="cls-2" d="M171.7,511.6h0c0-.1,0,0,0,0Z"/>
        <path class="cls-2" d="M171.2,511.4c.1-.1.2-.2.3-.2h.1c0,.2,0,.3-.1.5-.2,0-.3-.1-.5-.1.2-.1.2-.2.2-.2Z"/>
        <path class="cls-2" d="M171.1,511.4s0,.1,0,0q0,.1,0,0c0,.1,0,0,0,0Z"/>
        <path class="cls-2" d="M169,512.5h0Z"/>
        <path class="cls-2" d="M168.9,512.6q0,0,0,0c0,.1,0,.1,0,0h0Z"/>
        <path class="cls-2" d="M171.6,512.7c0-.1,0-.2.1-.3.2,0,.4-.1.6-.1-.1.1-.3.2-.4.3-.2.1-.3.1-.3.1Z"/>
        <path class="cls-2" d="M171.9,512.6c.2-.1.4-.2.6-.3.2,0,.3,0,.5-.1h.4c-.5.2-1,.3-1.5.4Z"/>
        <path class="cls-2" d="M182.6,510.7c-.3,0-.6,0-.9.1h0c.4-.1.9-.2,1.3-.2h.1c-.2-.1-.4,0-.5.1Z"/>
        <path class="cls-2" d="M205.4,511.3c-.1.1-.2.1-.3.2-.3.1-.5.1-.8.2h.1c.4-.3.7-.3,1-.4h0Z"/>
        <path class="cls-2" d="M205.4,513.1h-.1l.2-.2c0,.1,0,.1,0,.2Z"/>
        <path class="cls-2" d="M198.6,402.8c-.1,0-.2,0-.3.1.3-.2.5-.3.8-.5h.1c-.2.1-.4.3-.6.4Z"/>
        <path class="cls-2" d="M200.8,400.8c-.1,0-.2,0-.3-.1.2,0,.4-.1.7-.1,0,0-.2.1-.4.2Z"/>
        <path class="cls-2" d="M201.4,402.3h0Z"/>
        <path class="cls-2" d="M205.7,401.4c-.1.1-.3.2-.4.4.1-.1.2-.3.3-.4h0q0-.1,0,0Z"/>
        <path class="cls-2" d="M205.9,398.3h0Z"/>
        <path class="cls-2" d="M206.6,398c-.1.1-.3.1-.4.2h0c0-.1.3-.2.4-.2h0Z"/>
        <path class="cls-2" d="M207.5,397.6c-.1,0-.2.1-.3.1h0c0-.2.1-.2.1-.3l.3-.2c0,.2-.1.3-.1.4Z"/>
        <path class="cls-2" d="M207.8,395.5c.2-.3.4-.6.7-.9h0c-.3.3-.5.7-.7.9Z"/>
        <path class="cls-2" d="M219.1,511.2q-.1,0-.2.1h.2Z"/>
        <path class="cls-2" d="M210.3,390.1h0Z"/>
        <path class="cls-2" d="M209.4,390.3c.5-.7.9-1.3,1.3-1.9q.1,0,.2-.1c-.5.7-1,1.4-1.5,2Z"/>
        <path class="cls-2" d="M211.1,388c-.1.1-.2.1-.3.2.1,0,.1-.1.2-.1h0c-.1,0-.2.1-.3.1.1-.1.2-.2.3-.4.1-.1.3-.2.4-.2,0,.1-.2.3-.3.4Z"/>
        <path class="cls-2" d="M212.4,387.4s0-.1,0,0h.1c0-.1-.1-.1-.1,0Z"/>
        <path class="cls-2" d="M212,386.8c-.2.1-.4.2-.5.3.3-.4.6-.9.9-1.3h.2c-.2.4-.4.7-.6,1Z"/>
        <path class="cls-2" d="M213,385.3l-.4.3h.1c0-.1.4-.4.4-.4,0,0-.1,0-.1.1Z"/>
        <path class="cls-2" d="M217.8,378.4h.1c0-.1-.1,0-.1,0Z"/>
        <path class="cls-2" d="M219.5,376.9c-.1.1-.2.2-.3.3-.1.1-.3.3-.5.4l1-1.1c0,.2-.1.3-.2.4Z"/>
        <path class="cls-2" d="M221.7,373.4c-.2.1-.4.2-.6.4.1-.1.2-.3.4-.4l.5-.3c-.1.1-.2.2-.3.3Z"/>
        <path class="cls-2" d="M227.8,365.7h.4c-.5.1-.9.3-1.4.5.3-.2.7-.4,1-.5Z"/>
        <path class="cls-2" d="M228.2,366.7c-.2,0-.3,0-.5.1.3-.1.5-.2.8-.3-.1,0-.2.1-.3.2Z"/>
        <path class="cls-2" d="M228.8,366.6c.3-.2.6-.5.9-.7h.1c-.3.2-.5.4-.7.7h-.3Z"/>
        <path class="cls-2" d="M242.1,508q-.1,0,0,0t0,.1c0,.1-.1.3-.2.4.1-.3.1-.6.2-.9,0,.1,0,.2.1.2q-.1.1-.1.2Z"/>
        <path class="cls-2" d="M230.1,366.4c-.1,0-.3.1-.4.1.3-.3.6-.5.8-.7.1,0,.1.1.2.1-.2.2-.4.3-.6.5Z"/>
        <path class="cls-2" d="M244.5,514.4v-.3c.2.3.4.7.6,1,.1.3.1.6.2.8-.3-.5-.6-1-.8-1.5Z"/>
        <path class="cls-2" d="M282.7,469.8c0-.1-.1-.1-.1-.2q.1-.1.1-.2c-.1.2-.1.3,0,.4Z"/>
        <path class="cls-2" d="M283.1,464.5v-.4.6c.1,0,.1-.1,0-.2Z"/>
        <path class="cls-2" d="M285.1,459.3h0v.5h0v-.5Z"/>
        <path class="cls-2" d="M284.8,459q0,0,0,0v.3h0v-.3Z"/>
        <path class="cls-2" d="M284.7,460.2q.1.1,0,0v.5-.5Z"/>
        <path class="cls-2" d="M284.8,461c0-.2.1-.4.1-.5,0,.1.1.1.1.2v.7c-.1-.1-.1-.3-.2-.4Z"/>
        <path class="cls-2" d="M285.2,461.7c-.1-.1-.1-.2-.2-.3,0-.2.1-.4.1-.6,0,.1.1.1.2.2-.1.3-.1.5-.1.7Z"/>
        <path class="cls-2" d="M285.2,461.8h0v-.5c.1.2.1.3,0,.5Z"/>
        <path class="cls-2" d="M285.4,460.4c0-.1-.1-.2-.1-.3,0-.2,0-.4.1-.5,0,.1.1.1.1.2-.1.2-.1.4-.1.6Z"/>
        <path class="cls-2" d="M285.6,461.7c0-.1-.1-.2-.1-.3h0c0,.1.1.1.1.1v.2Z"/>
        <path class="cls-2" d="M285.7,461.4h0q-.1,0,0,0h0Z"/>
        <path class="cls-2" d="M285.6,461s0-.1,0,0h0q0-.1,0,0Z"/>
        <path class="cls-2" d="M285.7,461.1s0-.1,0,0v-.4.4Z"/>
        <path class="cls-2" d="M285.7,456.1v.3c0-.3,0-.6-.1-.9v-.2c.1.2.1.5.1.8Z"/>
        <path class="cls-2" d="M288.7,440.3s0,.1,0,0v.2-.2Z"/>
        <path class="cls-2" d="M289.3,442.1c0,.1.1.2.1.3-.1.3-.2.7-.3,1,0-.5.2-.9.2-1.3Z"/>
        <path class="cls-2" d="M289.8,443.3c-.1.3-.3.6-.4.8,0-.3.2-.6.4-.8-.1,0-.1.1-.1.1v-.3h0q.1.1.1.2Z"/>
        <path class="cls-2" d="M294.5,428.5v-.2.2h0q0,.1,0,0Z"/>
        <path class="cls-2" d="M294.9,433.4h0Z"/>
        <path class="cls-2" d="M295.4,434.7h0c0-.1-.2-.4-.4-.9,0-.1,0-.2-.1-.3h0c.1.4.3.8.4,1,.1,0,.1.1.1.2Z"/>
        <path class="cls-2" d="M295.6,433.3v-.3l.2-.6c-.1.3-.2.6-.2.9Z"/>
        <path class="cls-2" d="M296.7,427.6c-.1.2-.1.4-.2.6h0c0,.1-.5,1.5-.5,1.5.1-.4.1-.8.2-1.2s.2-.9.4-1.3c0,.1.1.2.1.4,0-.1,0,0,0,0Z"/>
        <path class="cls-2" d="M301.9,417h0s0,.1.1.2c0,0-.1-.1-.1-.2Z"/>
        <path class="cls-2" d="M306,404.2c0-.3,0-.6-.1-.9v-.3c.1.2.1.3.2.4,0,.2-.1.5-.1.8Z"/>
        <path class="cls-2" d="M306.1,403.2c-.1-.3-.2-.6-.3-.9h0c.1-.2.1-.3.2-.5v.8c0,.2,0,.4,0,.6Z"/>
        <path class="cls-2" d="M307,406.1c-.1-.8-.1-1.6-.2-2.4,0-.2,0-.3.1-.5.1.3.3.7.4.9v.5c0-.1,0-.3.1-.4h0c-.2.8-.3,1.4-.4,1.8Z"/>
        <path class="cls-2" d="M307.3,404.4h0v-.2.2Z"/>
        <path class="cls-2" d="M307,393.6h0v-.3h0c.1.4.2.7.3,1,0-.2-.2-.5-.3-.7Z"/>
        <path class="cls-2" d="M309.4,388.7v1-1Z"/>
        <path class="cls-2" d="M307.8,388c0-.2,0-.4.1-.6.1.4.2.7.3,1.1-.1-.2-.3-.4-.4-.5Z"/>
        <path class="cls-2" d="M308.1,385.6c.2.7.3,1.3.5,1.9h0c-.2-.1-.3-.3-.5-.5,0-.1,0-.2-.1-.3h0c-.1-.5-.2-.9-.2-1.2v-.7c.1.2.2.5.3.8Z"/>
        <path class="cls-2" d="M309,373.7c-.1-.1-.1-.2-.2-.3,0-.1.1-.2.1-.3,0,.1.1.3.1.6Z"/>
        <path class="cls-2" d="M308.1,372.2c0-.2.1-.3.1-.5v.7c0-.1-.1-.1-.1-.2h0Z"/>
        <path class="cls-2" d="M308.1,373h0Z"/>
        <path class="cls-2" d="M308.2,374.7v-.5c0,.1.1.1.1.1,0,.2,0,.3-.1.4Z"/>
        <path class="cls-2" d="M308.4,374.2c0-.1-.1-.1-.1-.2,0-.2.1-.4.1-.7l.2.2c-.1.2-.1.4-.2.7Z"/>
        <path class="cls-2" d="M308.5,372.8c0-.4.1-.7.1-1.1h0c.1.3.1.6.2.8,0,.2-.1.4-.1.6-.1-.1-.2-.2-.2-.3Z"/>
        <path class="cls-2" d="M308.7,373.6c.1.2.2.3.4.5h0c0,.1-.4-.5-.4-.5Z"/>
        <path class="cls-2" d="M308.9,371.4v-.2h0v.2Z"/>
        <path class="cls-2" d="M310.6,372.9v.2-.2h0Z"/>
        <path class="cls-2" d="M309.6,373.8c.1.5.2.9.2,1.3-.1-.2-.3-.5-.4-.7,0-.2.2-.4.2-.6Z"/>
        <path class="cls-2" d="M309.4,372.7c-.1-.2-.2-.4-.3-.5,0-.2.1-.3.1-.5.1.2.1.6.2,1Z"/>
        <path class="cls-2" d="M309.1,383.1h0c0-.1,0,0,0,0Z"/>
        <path class="cls-2" d="M289.9,445.4h-.8c.2.1.4.1.8,0Z"/>
        <path class="cls-2" d="M242.3,511.6c0,.1,0,.2-.1.3h.1v-.3h0Z"/>
        <path class="cls-2" d="M180,511.9c.4-.2.8-.4,1.3-.6-.2.1-.4.1-.6.2-.3.1-.5.3-.7.4Z"/>
        <path class="cls-2" d="M288.8,446q0-.1,0,0t0,0,0,0h0c.1.2.1.4.1.5v-.5h-.1c.1,1,.2,1.8.3,2.4v-2.9c-.8.3-.5.3-.3.5ZM288.9,445.8v.2h0v-.2Z"/>
        <path class="cls-2" d="M286.5,460.8h0v.4c0,.2.1.5.2.7,0-.4,0-.8-.2-1.1Z"/>
      </g>
    </g>
  </g>
</svg>